<?xml version="1.0" encoding="utf-8"?>
<!-- Generator: Adobe Illustrator 23.0.2, SVG Export Plug-In . SVG Version: 6.00 Build 0)  -->
<svg version="1.1" id="Layer_1" xmlns="http://www.w3.org/2000/svg" xmlns:xlink="http://www.w3.org/1999/xlink" x="0px" y="0px"
	 viewBox="0 0 953.6 812.8" style="enable-background:new 0 0 953.6 812.8;" xml:space="preserve">
<style type="text/css">
	.st0{fill:#F08B25;}
	.st1{fill:#63B234;}
	.st2{fill:#E4B634;}
	.st3{fill:#C41B2D;}
	.st4{fill:#4D9E37;}
	.st5{fill:#3E7E45;}
	.st6{fill:#FBC109;}
	.st7{fill:#E7412E;}
	.st8{fill:#F49C2C;}
	.st9{fill:#1595D3;}
	.st10{fill:#A21A43;}
	.st11{fill:#2BBAE0;}
	.st12{fill:#EC692F;}
	.st13{fill:#E5233C;}
	.st14{fill:#DC1668;}
	.st15{fill:#18486A;}
	.st16{fill:#C7982D;}
	.st17{fill:#00699E;}
</style>
<title>wll-logo-v2</title>
<g>
	<g id="Layer_1-2">
		<g id="_Group_">
			<path class="st0" d="M98.5,571c-0.8,0-1.6-0.2-2.3-0.5L3.2,527.8c-1.9-0.9-3.2-2.8-3.2-4.9V100.2C0,98,1.4,96,3.5,95.2L248.7,0.4
				c2.8-1.1,6,0.3,7,3.1c0.2,0.6,0.4,1.3,0.4,1.9v49.9c0,3-2.4,5.4-5.4,5.4c-0.9,0-1.8-0.2-2.7-0.7l-15.1-8.5l-179.7,69l47.2,17.5
				c2.1,0.8,3.5,2.8,3.5,5.1v422.4C103.9,568.6,101.5,571,98.5,571z M10.9,519.3l82.2,37.8V146.9l-57.1-21.2c-2.8-1-4.3-4.2-3.2-7
				c0.5-1.5,1.7-2.6,3.2-3.2l195.5-75.1c1.5-0.6,3.2-0.5,4.6,0.3l9.2,5.2V13.4L10.9,104V519.3z"/>
		</g>
		<g id="_Group_2">
			<path class="st0" d="M201.6,586c-0.2,0-0.4,0-0.6,0c-2.3-0.3-4.2-1.9-4.7-4.2l-10.1-44.6L100.4,570c-2.8,1.1-5.9-0.3-7-3.1
				c-0.2-0.6-0.4-1.3-0.4-2V142.6c0-2.2,1.4-4.3,3.5-5.1l233-89.3c2.8-1.1,6,0.3,7.1,3.1c0.2,0.6,0.4,1.3,0.4,2v422.4
				c0,2.3-1.4,4.3-3.5,5.1L238,517.3l-31.5,65.6C205.6,584.8,203.7,586,201.6,586z M190.1,524.4c2.5,0,4.7,1.8,5.3,4.2l8.1,35.5
				l25.7-53.5c0.6-1.3,1.7-2.2,3-2.7l94-36V61.2l-222.2,85.1V557l84.2-32.3C188.7,524.5,189.4,524.4,190.1,524.4L190.1,524.4z"/>
		</g>
		<g id="_Group_3">
			<polygon class="st0" points="459.1,110.8 444.5,206.6 420,206.6 399.2,51.5 424.3,51.5 436.5,149.9 436.7,149.9 449.7,51.5 
				471,51.5 485.4,149.9 485.6,149.9 497.5,51.5 519.4,51.5 499.3,206.6 474.6,206.6 459.3,110.8 			"/>
		</g>
		<g id="_Group_4">
			<g id="_Group_5">
				<path class="st0" d="M578,170.7V87.5c0-9.4-4.1-16-13.5-16c-9.1,0-13.2,6.6-13.2,16v83.3c0,9.4,4.1,16,13.2,16
					C573.9,186.7,578,180.1,578,170.7 M525.3,166.6v-75c0-24.2,11.9-41.9,39.3-41.9c27.6,0,39.5,17.6,39.5,41.9v75
					c0,24-11.9,41.9-39.5,41.9C537.2,208.5,525.3,190.6,525.3,166.6"/>
			</g>
			<g id="_Group_6">
				<path class="st0" d="M641.9,72.8v48.3h8.7c8.9,0,12.8-4.6,12.8-12.8V85.4c0-8.5-3.9-12.6-12.8-12.6H641.9z M641.9,135.5v71.1
					h-26V51.5h37.9c26.2,0,35.8,13,35.8,34.8v19.9c0,16.7-6,26.5-20.8,30l24.9,70.5h-27.4L641.9,135.5z"/>
			</g>
		</g>
		<g id="_Group_7">
			<polygon class="st0" points="700.8,51.5 726.8,51.5 726.8,185.4 757.8,185.4 757.8,206.6 700.8,206.6 			"/>
		</g>
		<g id="_Group_8">
			<g id="_Group_9">
				<path class="st0" d="M803.6,185.4c10.7,0,14.8-6.4,14.8-15.8V88.4c0-9.2-4.1-15.6-14.8-15.6h-11v112.5H803.6z M844.4,93.2V165
					c0,23.8-9.8,41.6-37.7,41.6h-40.2V51.5h40.2C834.6,51.5,844.4,69.2,844.4,93.2"/>
			</g>
		</g>
		<g id="_Group_10">
			<polygon class="st0" points="876.1,53.6 866.9,86.1 852.6,86.1 854,51.5 876.1,51.5 			"/>
		</g>
		<g id="_Group_11">
			<g id="_Group_12">
				<path class="st0" d="M879,173.2v-20.8h24.2v21.3c0,8.7,3.9,13.7,12.8,13.7c8.2,0,11.9-5.5,11.9-13.7v-5.9
					c0-8.9-3.7-14.4-11.6-22l-15.3-15.3c-14.8-14.6-21.7-23.6-21.7-41.4v-5.2c0-19.2,11.2-34.1,36.5-34.1c26,0,36.3,12.8,36.3,35.2
					v12.6h-23.8V84c0-8.9-4.1-13.3-12.3-13.3c-7.3,0-12.3,4.1-12.3,12.8v3.2c0,8.7,4.8,13.7,12.3,21l16.7,16.5
					c14.1,14.4,21,23.1,21,40.3v7.6c0,21.3-11.4,36.4-37.9,36.4S879,193.6,879,173.2"/>
			</g>
		</g>
		<g id="_Group_13">
			<polygon class="st0" points="402.8,242.7 428.8,242.7 428.8,376.5 459.8,376.5 459.8,397.8 402.8,397.8 			"/>
		</g>
		<g id="_Group_14">
			<path class="st0" d="M497.2,348.6H518l-10.3-62.2h-0.2L497.2,348.6z M464.6,397.8l29.2-155.1h29.7l29.4,155.1h-26.7l-4.8-28.4
				h-27.6l-4.6,28.4H464.6z"/>
		</g>
		<g id="_Group_15">
			<g id="_Group_16">
				<path class="st0" d="M586.7,264v48.3h8.7c8.9,0,12.8-4.6,12.8-12.8v-22.9c0-8.5-3.9-12.6-12.8-12.6L586.7,264z M586.7,326.7
					v71.1h-26V242.7h37.8c26.2,0,35.8,13,35.8,34.8v19.9c0,16.7-5.9,26.5-20.8,30l24.8,70.5H611L586.7,326.7z"/>
			</g>
			<g id="_Group_17">
				<path class="st0" d="M684.8,315h37v82.8H703v-17c-3.4,11.7-10.7,18.8-24.9,18.8c-22.4,0-32.6-17.9-32.6-41.9v-75
					c0-24.2,11.6-41.9,39-41.9c28.8,0,37.2,16,37.2,38.9v13.7H698v-15.8c0-9.6-3.7-15.1-13-15.1s-13.5,6.6-13.5,16v83.3
					c0,9.4,3.9,16,12.8,16c8.5,0,12.8-4.8,12.8-14.9v-27.4h-12.3V315z"/>
			</g>
		</g>
		<g id="_Group_18">
			<polygon class="st0" points="733.6,242.7 795.6,242.7 795.6,264 759.6,264 759.6,308.3 785.3,308.3 785.3,329.4 759.6,329.4 
				759.6,376.5 795.6,376.5 795.6,397.8 733.6,397.8 			"/>
		</g>
		<g id="_Group_19">
			<g id="_Group_20">
				<path class="st0" d="M804,364.4v-20.8h24.2v21.3c0,8.7,3.9,13.7,12.8,13.7c8.2,0,11.9-5.5,11.9-13.7v-6c0-8.9-3.7-14.4-11.6-22
					l-15.3-15.3c-14.8-14.5-21.7-23.5-21.7-41.4v-5.3c0-19.2,11.2-34.1,36.5-34.1c26,0,36.3,12.8,36.3,35.2v12.6h-23.7v-13.5
					c0-8.9-4.1-13.3-12.3-13.3c-7.3,0-12.3,4.1-12.3,12.8v3.2c0,8.7,4.8,13.7,12.3,21l16.7,16.5c14.1,14.4,21,23.1,21,40.3v7.5
					c0,21.3-11.4,36.4-37.9,36.4S804,384.7,804,364.4"/>
			</g>
		</g>
		<g id="_Group_21">
			<polygon class="st0" points="882.9,242.7 952,242.7 952,264 930.6,264 930.6,397.8 904.3,397.8 904.3,264 882.9,264 			"/>
		</g>
		<g id="_Group_22">
			<polygon class="st0" points="402.8,433.8 428.8,433.8 428.8,567.6 459.8,567.6 459.8,588.9 402.8,588.9 			"/>
		</g>
		<g id="_Group_23">
			<polygon class="st0" points="468.7,433.8 530.7,433.8 530.7,455.1 494.7,455.1 494.7,499.5 520.4,499.5 520.4,520.5 494.7,520.5 
				494.7,567.6 530.7,567.6 530.7,588.9 468.7,588.9 			"/>
		</g>
		<g id="_Group_24">
			<g id="_Group_25">
				<path class="st0" d="M539.1,555.5v-20.8h24.2V556c0,8.7,3.9,13.7,12.8,13.7c8.2,0,11.8-5.5,11.8-13.7v-6c0-8.9-3.7-14.4-11.6-22
					L561,512.7c-14.8-14.6-21.7-23.6-21.7-41.4V466c0-19.2,11.2-34.1,36.5-34.1c26,0,36.3,12.8,36.3,35.2v12.6h-23.8v-13.5
					c0-8.9-4.1-13.3-12.3-13.3c-7.3,0-12.3,4.1-12.3,12.8v3.2c0,8.7,4.8,13.7,12.3,21l16.7,16.5c14.1,14.4,21,23.1,21,40.3v7.5
					c0,21.3-11.4,36.4-37.9,36.4S539.1,575.8,539.1,555.5"/>
			</g>
			<g id="_Group_26">
				<path class="st0" d="M621.9,555.5v-20.8h24.2V556c0,8.7,3.9,13.7,12.8,13.7c8.2,0,11.9-5.5,11.9-13.7v-6c0-8.9-3.7-14.4-11.6-22
					l-15.3-15.3c-14.8-14.6-21.7-23.6-21.7-41.4V466c0-19.2,11.2-34.1,36.5-34.1c26,0,36.3,12.8,36.3,35.2v12.6h-23.7v-13.5
					c0-8.9-4.1-13.3-12.3-13.3c-7.3,0-12.3,4.1-12.3,12.8v3.2c0,8.7,4.8,13.7,12.3,21l16.7,16.5c14.2,14.4,21,23.1,21,40.3v7.5
					c0,21.3-11.4,36.4-37.9,36.4S621.9,575.8,621.9,555.5"/>
			</g>
			<g id="_Group_27">
				<path class="st0" d="M760,553v-83.3c0-9.4-4.1-16-13.5-16c-9.2,0-13.2,6.6-13.2,16V553c0,9.4,4.1,16,13.2,16
					C755.9,569,760,562.4,760,553 M707.2,548.9v-75c0-24.2,11.9-41.9,39.3-41.9c27.6,0,39.5,17.6,39.5,41.9v75
					c0,24-11.9,41.9-39.5,41.9C719.1,590.8,707.2,572.9,707.2,548.9"/>
			</g>
		</g>
		<g id="_Group_28">
			<polygon class="st0" points="819.7,491.4 819.7,588.9 797.8,588.9 797.8,433.8 823.4,433.8 851.4,522.8 851.4,433.8 873.1,433.8 
				873.1,588.9 850.3,588.9 			"/>
		</g>
		<g id="_Group_29">
			<path class="st0" d="M151.5,595.9c7.7,1,14.7-4.5,15.7-12.1s-4.5-14.7-12.1-15.7c-7.7-1-14.7,4.4-15.7,12.1
				c-1,7.6,4.4,14.6,12,15.7C151.4,595.9,151.5,595.9,151.5,595.9"/>
		</g>
		<g id="_Group_30">
			<path class="st0" d="M155.6,602.6h-0.9c-26.6,1.1-35.4,49.3-34.9,94.1c0,1.9,1.6,3.5,3.5,3.5l0,0c1.9,0,3.5-1.6,3.4-3.5
				c0,0,0,0,0,0c-0.6-49.7,9.5-76.8,21.3-84.5c-3.4,10.8-4.1,28.7-3.6,37.2c1.9,31.7-1.4,70.1-1.4,70.1s4.2-0.6,10.1-1.5l1.3,23.9
				l-0.8,14.3l-1.6,53.3l8.4,0.3l1.6-53.2l0.8-14.7l-1.4-25.2c2.5-0.4,5.2-0.9,7.8-1.4l1.5,26.6l-0.8,14.3l-1.6,53.3l8.4,0.3
				l1.6-53.2l0.8-14.7l-1.6-28.3c1.4-0.3,2.7-0.6,3.9-0.9c0,0,5.3-57.7-11.8-95.4c10.4,11.1,19.6,33.7,21.8,64.7
				c0.1,1.9,1.7,3.4,3.6,3.3c1.9-0.1,3.4-1.7,3.3-3.6c0-0.1,0-0.1,0-0.2C195.5,636.2,177.1,602.6,155.6,602.6"/>
		</g>
		<g id="_Group_31">
			<path class="st0" d="M248.4,653.3c0.8-6.1-3.4-11.7-9.4-12.6c-6-0.6-11.3,3.7-12,9.6c0,0,0,0.1,0,0.1c-0.8,6,3.3,11.6,9.4,12.6
				c6,0.6,11.4-3.7,12-9.7C248.4,653.3,248.4,653.3,248.4,653.3 M253.9,676.3c-6.2-7-13.2-8.3-16.9-8.5c-26.4-1-29.8-52-29.9-53.8
				c0.1-1.3-0.8-2.5-2-2.9c-1.5-0.5-3.1,0.4-3.6,1.9c0,0,0,0,0,0c-0.5,1.7,1.8,30.8,13.5,47.5c4,5.7,8.8,9.6,14.2,11.5
				c-6.9,13.3-4.3,77.5-4.3,77.5l4.6-0.8v17.3l3.8,39.8h7.2l-4.1-40.5v-17.8l5.8-1l0.4,19.9l3.1,43.2h7.1l-4.1-44.8v-19.6l3.5-0.6
				c0,0,3.5-47.8-6.2-68c1.3,0.9,2.5,2,3.6,3.3c5.6,6.4,11.9,20.4,9.6,51.4c-0.1,1.6,1.1,3,2.6,3.1c0,0,0,0,0,0h0.2
				c1.5,0,2.8-1.2,2.9-2.7C266.9,705.4,263.2,686.7,253.9,676.3"/>
		</g>
		<g id="_Group_32">
			<path class="st0" d="M313.7,656.3c0.8-6-3.3-11.6-9.4-12.6c-6-0.7-11.3,3.7-12,9.6c0,0.1,0,0.1,0,0.2c-0.8,6,3.3,11.6,9.4,12.6
				C307.7,666.7,313.1,662.4,313.7,656.3C313.7,656.4,313.7,656.3,313.7,656.3 M319.2,679.3c-5.2-5.9-12.2-7.5-16.5-7.9
				c-0.2-0.1-0.4-0.1-0.6-0.2c-0.2,0-0.5,0-0.7,0.1c-0.3,0-0.6-0.1-0.9-0.1l-0.2,0.1c-3.5,0.3-6.8,1.8-9.3,4.4
				c-13.5,13.5-12.4,54.3-12.2,58.9c0.1,1.6,1.4,2.9,3,2.9h0.1c1.6-0.1,2.9-1.5,2.9-3.1c-0.5-12.8,0.6-37.3,7.2-49.8
				c-3.6,22.2-1.7,68-1.7,68l4.6-0.8v17.3l3.8,39.8h7.1l-4.1-40.5v-17.7l5.8-1l0.3,19.9l3.2,43.2h7.1l-4.1-44.8v-19.5l3.5-0.6
				c0,0,3.5-47.8-6.2-68c1.3,0.9,2.5,2,3.6,3.2c5.6,6.4,11.9,20.4,9.6,51.4c-0.1,1.6,1.1,3,2.7,3.1h0.2c1.5,0,2.8-1.2,2.9-2.7
				C332.2,708.4,328.5,689.7,319.2,679.3"/>
		</g>
		<path class="st1" d="M179.4,301.6c2-4.9,4.4-9.6,7.2-14.1L163,267.8c-6,9.4-11,19.3-15,29.6L179.4,301.6z"/>
		<path class="st2" d="M237.2,254c3.4,0.3,6.8,1.2,9.9,2.8l23.6-41c-6.4-3.5-13.6-5.5-20.9-5.8L237.2,254z"/>
		<path class="st3" d="M291.3,238.7L260,271.2c1.6,3.7,2.6,7.6,3.1,11.6l34.9-19.6C297.2,254.7,294.9,246.4,291.3,238.7"/>
		<path class="st4" d="M257.7,266.9l31.3-32.5c-3.6-6.4-8.6-11.9-14.6-16.2l-23.6,41C253.6,261.3,255.9,263.9,257.7,266.9"/>
		<path class="st5" d="M173.2,331.3c0-0.8,0-1.7,0.1-2.5l-34.9,12.1c-0.1,2.1-0.2,4.2-0.2,6.2c0,7.3,0.8,14.6,2.4,21.7l33.7-26.6
			C173.5,338.6,173.2,334.9,173.2,331.3"/>
		<path class="st6" d="M253.3,328.6c-2.5,4.6-5.3,9.1-8.5,13.2l18.4,26.7c6.9-8.7,12.9-18,18-27.8L253.3,328.6z"/>
		<path class="st7" d="M263.6,290.4c0,3.9-0.3,7.9-1,11.8l33.7-3.9c1.5-7.8,2.3-15.8,2.4-23.7c0-1.9,0-3.8-0.1-5.7l-34.9,19.6
			C263.6,289.1,263.6,289.7,263.6,290.4"/>
		<path class="st8" d="M184,360.8l-27.9,37.5c5.1,5.1,11.3,8.9,18.2,11.1l18.4-43.3C189.5,364.9,186.5,363.1,184,360.8"/>
		<path class="st9" d="M173.8,322.6c0.7-5,1.8-9.9,3.3-14.7l-31.3-4.2c-3.4,10-5.8,20.4-6.9,31L173.8,322.6z"/>
		<path class="st10" d="M259,373.7L240.6,347c-3.3,3.7-6.8,7-10.7,10l6.5,37.5C244.7,388.4,252.3,381.4,259,373.7"/>
		<path class="st11" d="M261.2,308.5c-1.2,4.8-2.9,9.5-4.9,14l28,12.1c4.5-9.6,8.1-19.7,10.6-30L261.2,308.5z"/>
		<path class="st12" d="M224.9,360.4c-2.1,1.3-4.3,2.5-6.5,3.5c-1.7,0.8-3.5,1.4-5.3,2l-6.5,43.4c4-1.1,7.9-2.6,11.7-4.3
			c4.5-2.1,8.8-4.4,13-7.1L224.9,360.4z"/>
		<path class="st13" d="M221.3,256.5c3.6-1.4,7.4-2.2,11.2-2.5l12.5-44.1c-8.2,0.4-16.2,2.3-23.8,5.5L221.3,256.5z"/>
		<path class="st14" d="M208.1,367.2c-3.7,0.7-7.4,0.7-11.1,0.1l-18.4,43.3c7.6,1.6,15.4,1.6,23-0.1L208.1,367.2z"/>
		<path class="st15" d="M204.8,266.3c3.5-2.9,7.3-5.5,11.4-7.5v-41.1c-8.7,4.3-16.8,9.7-24.1,16L204.8,266.3z"/>
		<path class="st16" d="M180.9,357.5c-2.3-3.1-4.1-6.5-5.3-10.1L142,373.9c2.3,7.7,6,14.9,11.1,21.1L180.9,357.5z"/>
		<path class="st17" d="M190.4,281.8c2.9-4,6.2-7.8,9.7-11.3L187.4,238c-7.7,7.3-14.6,15.4-20.6,24.2L190.4,281.8z"/>
		<polygon class="st0" points="233.3,45.6 37.8,117.9 98.5,142.6 281.6,72.4 		"/>
	</g>
</g>
</svg>
